<svg width="20" height="21" viewBox="0 0 20 21" fill="none" xmlns="http://www.w3.org/2000/svg">
<path d="M19.2 0.5H0.8C0.3575 0.5 0 0.8575 0 1.3V19.7C0 20.1425 0.3575 20.5 0.8 20.5H19.2C19.6425 20.5 20 20.1425 20 19.7V1.3C20 0.8575 19.6425 0.5 19.2 0.5ZM5.9325 17.5425H2.965V7.9975H5.9325V17.5425ZM4.45 6.6925C4.10982 6.6925 3.77727 6.59162 3.49442 6.40263C3.21157 6.21363 2.99111 5.945 2.86093 5.63072C2.73074 5.31643 2.69668 4.97059 2.76305 4.63694C2.82942 4.3033 2.99323 3.99682 3.23378 3.75628C3.47432 3.51573 3.7808 3.35192 4.11444 3.28555C4.44809 3.21918 4.79393 3.25324 5.10822 3.38343C5.4225 3.51361 5.69113 3.73407 5.88013 4.01692C6.06912 4.29977 6.17 4.63232 6.17 4.9725C6.1675 5.9225 5.3975 6.6925 4.45 6.6925ZM17.0425 17.5425H14.0775V12.9C14.0775 11.7925 14.0575 10.37 12.535 10.37C10.9925 10.37 10.755 11.575 10.755 12.82V17.5425H7.7925V7.9975H10.6375V9.3025H10.6775C11.0725 8.5525 12.04 7.76 13.485 7.76C16.49 7.76 17.0425 9.7375 17.0425 12.3075V17.5425Z" fill="white"/>
</svg>
