<svg width="20" height="21" viewBox="0 0 20 21" fill="none" xmlns="http://www.w3.org/2000/svg">
<path d="M0 0.5V20.5H20V0.5H0ZM16 7.5V7.875C16 12 12.875 16.625 7.25 16.625C5.5 16.625 3.875 16.125 2.5 15.25H3.25C4.75 15.25 6 14.75 7.125 13.875C5.75 13.875 4.625 13 4.25 11.75H4.875C5.125 11.75 5.375 11.75 5.625 11.625C4.25 11.375 3.125 10.125 3.125 8.625C3.5 8.875 4 9 4.5 9C3.625 8.5 3.125 7.5 3.125 6.5C3.125 5.875 3.25 5.375 3.5 5C5 6.875 7.375 8 9.875 8.125C9.875 7.875 9.75 7.625 9.75 7.375C9.75 5.625 11.125 4.25 12.875 4.25C13.75 4.25 14.5 4.625 15.125 5.25C15.875 5.125 16.5 4.875 17.125 4.5C16.875 5.25 16.375 5.875 15.75 6.25C16.375 6.125 17 6 17.5 5.75C17.125 6.5 16.625 7 16 7.5Z" fill="white"/>
</svg>
