<svg width="41" height="41" viewBox="0 0 41 41" fill="#ffffff" xmlns="http://www.w3.org/2000/svg">
<mask id="mask0_8759_74" style="mask-type:alpha" maskUnits="userSpaceOnUse" x="0" y="0" width="41" height="41">
<rect x="0.8125" y="0.809082" width="40" height="40" fill="#ffffff"/>
</mask>
<g mask="url(#mask0_8759_74)">
<path d="M12.6676 37.4481C11.8105 37.4481 11.0786 37.1429 10.4722 36.5325C9.86567 35.9221 9.56242 35.1883 9.56242 34.3311C9.56242 33.474 9.86763 32.7421 10.478 32.1357C11.0885 31.5292 11.8223 31.2259 12.6794 31.2259C13.5366 31.2259 14.2684 31.5311 14.8749 32.1415C15.4814 32.752 15.7846 33.4857 15.7846 34.3429C15.7846 35.2001 15.4794 35.9319 14.869 36.5384C14.2586 37.1449 13.5248 37.4481 12.6676 37.4481ZM29.3343 37.4481C28.4771 37.4481 27.7453 37.1429 27.1388 36.5325C26.5323 35.9221 26.2291 35.1883 26.2291 34.3311C26.2291 33.474 26.5343 32.7421 27.1447 32.1357C27.7551 31.5292 28.4889 31.2259 29.3461 31.2259C30.2033 31.2259 30.9351 31.5311 31.5416 32.1415C32.1481 32.752 32.4513 33.4857 32.4513 34.3429C32.4513 35.2001 32.1461 35.9319 31.5357 36.5384C30.9253 37.1449 30.1915 37.4481 29.3343 37.4481ZM10.7568 10.2259L15.1458 19.337H27.0347L32.0347 10.2259H10.7568ZM9.39575 7.44812H33.9533C34.5916 7.44812 35.0772 7.73748 35.4102 8.3162C35.7431 8.8949 35.7476 9.47591 35.4235 10.0592L29.7013 20.3648C29.3957 20.9018 28.9947 21.3277 28.4983 21.6426C28.0018 21.9574 27.4584 22.1148 26.868 22.1148H14.3124L12.1458 26.1148H31.0624C31.4559 26.1148 31.7858 26.2484 32.052 26.5155C32.3182 26.7826 32.4513 27.1137 32.4513 27.5086C32.4513 27.9035 32.3182 28.2329 32.052 28.4967C31.7858 28.7606 31.4559 28.8926 31.0624 28.8926H12.3958C11.2013 28.8926 10.3263 28.4505 9.77075 27.5662C9.2152 26.682 9.21057 25.7352 9.75688 24.7259L12.2847 20.087L6.06242 6.92033H4.17354C3.78002 6.92033 3.45015 6.78676 3.18396 6.51962C2.91777 6.25248 2.78467 5.92147 2.78467 5.52658C2.78467 5.13169 2.91777 4.8023 3.18396 4.53841C3.45015 4.27452 3.78002 4.14258 4.17354 4.14258H6.96521C7.23371 4.14258 7.48093 4.21141 7.70688 4.34908C7.93279 4.48677 8.10224 4.68183 8.21521 4.93424L9.39575 7.44812Z" fill="#ffffff" stroke="#fff"/>
</g>
</svg>
